<svg xmlns="http://www.w3.org/2000/svg" width="1280" height="720" viewBox="0 0 1280 720">
<defs>
  <marker id="arrow" markerWidth="10" markerHeight="10" refX="8" refY="3" orient="auto" markerUnits="strokeWidth">
    <path d="M0,0 L0,6 L9,3 z" fill="black" />
  </marker>
</defs>
<rect width="1280" height="720" fill="white" />

<path d="M 401.55 163.0 L 607.0 163.0" fill="none" stroke="black" stroke-width="2" marker-end="url(#arrow)" />
<path d="M 737.898402906742 226.0 L 737.898402906742 299.1001211142511" fill="none" stroke="black" stroke-width="2" marker-end="url(#arrow)" />
<path d="M 799.0 348.0 L 863.0 348.0" fill="none" stroke="black" stroke-width="2" marker-end="url(#arrow)" />
<path d="M 740.5085100489031 398.1263016459523 L 740.5085100489031 451.0" fill="none" stroke="black" stroke-width="2" marker-end="url(#arrow)" />
<path d="M 822.0 506.81753099083164 L 951.4752341043412 506.81753099083164" fill="none" stroke="black" stroke-width="2" marker-end="url(#arrow)" />
<path d="M 958.5 400.0 L 958.5 495.5624087729581" fill="none" stroke="black" stroke-width="2" marker-end="url(#arrow)" />
<circle cx="368.0" cy="163.0" r="33.550000000000004" fill="black" />
<text x="368.0" y="214.55" font-size="14" text-anchor="middle" font-family="sans-serif">start</text>
<rect x="607" y="95" width="252" height="131" rx="26.2" ry="26.2" fill="none" stroke="black" stroke-width="2" />
<text x="733.0" y="165.5" font-size="14" text-anchor="middle" font-family="sans-serif">check stock</text>
<polygon points="742.0,297 799,348.0 742.0,399 685,348.0" fill="none" stroke="black" stroke-width="2" />
<text x="742.0" y="353.0" font-size="14" text-anchor="middle" font-family="sans-serif">in stock?</text>
<rect x="863" y="271" width="191" height="129" rx="25.8" ry="25.8" fill="none" stroke="black" stroke-width="2" />
<text x="958.5" y="340.5" font-size="14" text-anchor="middle" font-family="sans-serif">proceed to pay</text>
<rect x="656" y="451" width="166" height="102" rx="20.4" ry="20.4" fill="none" stroke="black" stroke-width="2" />
<text x="739.0" y="507.0" font-size="14" text-anchor="middle" font-family="sans-serif">notify user</text>
<circle cx="969.0" cy="509.5" r="17.6" fill="none" stroke="black" stroke-width="2" />
<circle cx="969.0" cy="509.5" r="11.600000000000001" fill="black" />
<text x="969.0" y="545.1" font-size="14" text-anchor="middle" font-family="sans-serif">final</text>
</svg>
